<?xml version="1.0" encoding="UTF-8"?>
<svg version="1.1" xmlns="http://www.w3.org/2000/svg" width="64" height="64">
<path d="M0 0 C21.12 0 42.24 0 64 0 C64 21.12 64 42.24 64 64 C42.88 64 21.76 64 0 64 C0 42.88 0 21.76 0 0 Z " fill="#B695E8" transform="translate(0,0)"/>
<path d="M0 0 C21.12 0 42.24 0 64 0 C64 21.12 64 42.24 64 64 C42.88 64 21.76 64 0 64 C0 42.88 0 21.76 0 0 Z M1 1 C1 21.46 1 41.92 1 63 C12.2303125 63.0928125 12.2303125 63.0928125 23.6875 63.1875 C26.04350342 63.21481201 28.39950684 63.24212402 30.8269043 63.27026367 C32.7010039 63.27902816 34.57510923 63.28667219 36.44921875 63.29296875 C37.41686157 63.30831665 38.38450439 63.32366455 39.38146973 63.33947754 C43.2698041 63.34098796 46.4428403 63.17957755 50.15942383 61.98168945 C52.90738354 59.47381439 52.90738354 59.47381439 52 52 C44.08 52 36.16 52 28 52 C28 49.36 28 46.72 28 44 C30.64 44 33.28 44 36 44 C36 41.36 36 38.72 36 36 C38.64 36 41.28 36 44 36 C44 33.36 44 30.72 44 28 C46.64 28 49.28 28 52 28 C52 22.72 52 17.44 52 12 C49.36 12 46.72 12 44 12 C44 9.36 44 6.72 44 4 C42.9275 3.87625 41.855 3.7525 40.75 3.625 C37 3 37 3 35.22753906 1.97314453 C31.98942347 0.55850964 29.12948134 0.77675015 25.609375 0.8046875 C24.31999023 0.80968262 23.03060547 0.81467773 21.70214844 0.81982422 C20.06793945 0.83803223 18.43373047 0.85624023 16.75 0.875 C8.95375 0.936875 8.95375 0.936875 1 1 Z " fill="#9F7FD0" transform="translate(0,0)"/>
<path d="M0 0 C2.64 0 5.28 0 8 0 C8 2.64 8 5.28 8 8 C15.92 8 23.84 8 32 8 C32 10.64 32 13.28 32 16 C18.8 16 5.6 16 -8 16 C-8 13.36 -8 10.72 -8 8 C-5.36 8 -2.72 8 0 8 C0 5.36 0 2.72 0 0 Z " fill="#FFF6FF" transform="translate(20,44)"/>
<path d="M0 0 C7.92 0 15.84 0 24 0 C24 2.64 24 5.28 24 8 C16.08 8 8.16 8 0 8 C0 5.36 0 2.72 0 0 Z " fill="#FFF4FF" transform="translate(20,4)"/>
<path d="M0 0 C2.64 0 5.28 0 8 0 C8 5.28 8 10.56 8 16 C5.36 16 2.72 16 0 16 C0 10.72 0 5.44 0 0 Z " fill="#FFF3FF" transform="translate(44,12)"/>
<path d="M0 0 C2.64 0 5.28 0 8 0 C8 2.64 8 5.28 8 8 C5.36 8 2.72 8 0 8 C0 5.36 0 2.72 0 0 Z " fill="#FFF0FF" transform="translate(28,36)"/>
<path d="M0 0 C2.64 0 5.28 0 8 0 C8 2.64 8 5.28 8 8 C5.36 8 2.72 8 0 8 C0 5.36 0 2.72 0 0 Z " fill="#FFF0FF" transform="translate(36,28)"/>
<path d="M0 0 C2.64 0 5.28 0 8 0 C8 2.64 8 5.28 8 8 C5.36 8 2.72 8 0 8 C0 5.36 0 2.72 0 0 Z " fill="#FFF0FF" transform="translate(12,12)"/>
</svg>
